{"title":"Carnage [2011] 720p ReRip BRRip H264 AC3 - CODY","uid":7119574,"size":1289447807,"categoryP":"video","categoryS":"hd___movies","magnet":"?xt=urn:btih:73d619c0912f8127711fef406f0612dbda1cbe42&amp;dn=Carnage+%5B2011%5D+720p+ReRip+BRRip+H264+AC3+-+CODY&amp;tr=udp%3A%2F%2Ftracker.openbittorrent.com%3A80&amp;tr=udp%3A%2F%2Fopen.demonii.com%3A1337&amp;tr=udp%3A%2F%2Ftracker.coppersurfer.tk%3A6969&amp;tr=udp%3A%2F%2Fexodus.desync.com%3A6969","seeders":0,"leechers":1,"uploader":"CODYBOSS1969","files":9,"time":1332323832,"description":"General\nComplete name                            : Carnage [2011] 720p ReRip BRRip H264 AC3 - CODY.mp4\nFormat                                   : MPEG-4\nFormat profile                           : Base Media\nCodec ID                                 : isom\nFile size                                : 1.20 GiB\nDuration                                 : 1h 19mn\nOverall bit rate mode                    : Variable\nOverall bit rate                         : 2 158 Kbps\nEncoded date                             : UTC 2012-03-20 11:25:31\nTagged date                              : UTC 2012-03-20 11:25:31\n\nVideo\nID                                       : 1\nFormat                                   : AVC\nFormat/Info                              : Advanced Video Codec\nFormat profile                           : &lt;a class=&quot;__cf_email__&quot; href=&quot;/cdn-cgi/l/email-protection&quot; data-cfemail=&quot;226a4b454a626e160c13&quot;&gt;[email&amp;#160;protected]&lt;/a&gt;&lt;script cf-hash='f9e31' type=&quot;text/javascript&quot;&gt;\n/* &lt;![CDATA[ */!function(){try{var t=&quot;currentScript&quot;in document?document.currentScript:function(){for(var t=document.getElementsByTagName(&quot;script&quot;),e=t.length;e--;)if(t[e].getAttribute(&quot;cf-hash&quot;))return t[e]}();if(t&amp;&amp;t.previousSibling){var e,r,n,i,c=t.previousSibling,a=c.getAttribute(&quot;data-cfemail&quot;);if(a){for(e=&quot;&quot;,r=parseInt(a.substr(0,2),16),n=2;a.length-n;n+=2)i=parseInt(a.substr(n,2),16)^r,e+=String.fromCharCode(i);e=document.createTextNode(e),c.parentNode.replaceChild(e,c)}}}catch(u){}}();/* ]]&gt; */&lt;/script&gt;\nFormat settings, CABAC                   : Yes\nFormat settings, ReFrames                : 5 frames\nCodec ID                                 : avc1\nCodec ID/Info                            : Advanced Video Coding\nDuration                                 : 1h 19mn\nBit rate mode                            : Variable\nBit rate                                 : 1 707 Kbps\nMaximum bit rate                         : 20.0 Mbps\nWidth                                    : 1 280 pixels\nHeight                                   : 544 pixels\nDisplay aspect ratio                     : 2.35:1\nFrame rate mode                          : Constant\nFrame rate                               : 23.976 fps\nColor space                              : YUV\nChroma subsampling                       : 4:2:0\nBit depth                                : 8 bits\nScan type                                : Progressive\nBits/(Pixel*Frame)                       : 0.102\nStream size                              : 973 MiB (79%)\nWriting library                          : x264 core 119 r2106 07efeb4\nEncoding settings                        : rc=2pass\n\nAudio\nID                                       : 2\nFormat                                   : AC-3\nFormat/Info                              : Audio Coding 3\nMode extension                           : CM (complete main)\nCodec ID                                 : ac-3\nDuration                                 : 1h 19mn\nBit rate mode                            : Constant\nBit rate                                 : 448 Kbps\nChannel(s)                               : 5 channels\nChannel positions                        : Front: L C R, Side: L R\nSampling rate                            : 48.0 KHz\nBit depth                                : 16 bits\nCompression mode                         : Lossy\nStream size                              : 255 MiB (21%)\n\n\n\nIMDB link:                                &lt;a href=&quot; http://www.imdb.com/title/tt1692486/&quot; rel=&quot;nofollow&quot; target=&quot;_NEW&quot;&gt; http://www.imdb.com/title/tt1692486/&lt;/a&gt;\n\n\nSubtitles included                       : English, French, Polish, Romanian, __________________                         Spanish\n\n\n\n\nPlease seed at least 1,5:1 . This way this torrent has a chance to survive !\n\n\n\n\nThanks . Enjoy !!!\n\n\n\nSource was:        Carnage 2011 1080p BluRay AC3 x264-EbP***                Thanks!\n\n_______________\n\n***Sorry for the first upload. For me Carnage.2011.LIMITED.1080p.BluRay.x264-SPARKS  was no good as rip source !!! [the same for 720p SPARKS]\n","torrent":{"xt":"urn:btih:73d619c0912f8127711fef406f0612dbda1cbe42","amp;dn":"Carnage+%5B2011%5D+720p+ReRip+BRRip+H264+AC3+-+CODY","amp;tr":["udp%3A%2F%2Ftracker.openbittorrent.com%3A80","udp%3A%2F%2Fopen.demonii.com%3A1337","udp%3A%2F%2Ftracker.coppersurfer.tk%3A6969","udp%3A%2F%2Fexodus.desync.com%3A6969"],"infoHash":"73d619c0912f8127711fef406f0612dbda1cbe42","infoHashBuffer":{"type":"Buffer","data":[115,214,25,192,145,47,129,39,113,31,239,64,111,6,18,219,218,28,190,66]},"announce":[],"urlList":[]}}